<svg width="444" height="47" viewBox="0 0 444 47" fill="none" xmlns="http://www.w3.org/2000/svg">
<path d="M18.2152 36.9213L0.667068 26.875V22.3125L18.2152 12.2662L21.4177 18.8467L6.89664 26.1292V23.0583L21.4177 30.3407L18.2152 36.9213ZM425.639 36.9213L422.436 30.3407L436.957 23.0583V26.1292L422.436 18.8467L425.639 12.2662L443.187 22.3125V26.875L425.639 36.9213Z" fill="#616161"/>
<path d="M40.0348 36.4826C38.9526 36.4826 37.929 36.3363 36.9638 36.0439C35.9987 35.7806 35.1359 35.4151 34.3755 34.9471C33.6151 34.4499 32.9863 33.8796 32.4891 33.2362C31.9919 32.5927 31.6702 31.9054 31.5239 31.1743L33.191 30.7356L32.6207 35.9561H25.1628V3.53604H33.3665V18.2764L31.6117 17.7061C31.7872 16.9165 32.1235 16.1853 32.6207 15.5126C33.1471 14.8399 33.7759 14.255 34.5071 13.7578C35.2383 13.2314 36.0572 12.8365 36.9638 12.5733C37.8705 12.2808 38.821 12.1346 39.8154 12.1346C41.8334 12.1346 43.6029 12.661 45.1237 13.7139C46.6738 14.7376 47.8875 16.1707 48.7649 18.0132C49.6716 19.8558 50.1249 21.9615 50.1249 24.3305C50.1249 26.6995 49.6862 28.8053 48.8088 30.6478C47.9314 32.4611 46.7323 33.8942 45.2114 34.9471C43.6906 35.9708 41.9651 36.4826 40.0348 36.4826ZM37.6658 29.7704C38.6017 29.7704 39.3913 29.5511 40.0348 29.1124C40.7074 28.6444 41.2193 28.0156 41.5702 27.226C41.9504 26.407 42.1405 25.4419 42.1405 24.3305C42.1405 23.1899 41.9651 22.2101 41.6141 21.3912C41.2631 20.5723 40.7513 19.9581 40.0786 19.5487C39.406 19.11 38.6017 18.8906 37.6658 18.8906C36.7299 18.8906 35.9256 19.11 35.2529 19.5487C34.5802 19.9581 34.0538 20.5723 33.6736 21.3912C33.3226 22.2101 33.1471 23.1899 33.1471 24.3305C33.1471 25.4419 33.3226 26.407 33.6736 27.226C34.0538 28.0156 34.5802 28.6444 35.2529 29.1124C35.9256 29.5511 36.7299 29.7704 37.6658 29.7704ZM63.0622 36.3948C61.1319 36.3948 59.3917 35.883 57.8416 34.8594C56.3208 33.8065 55.107 32.3734 54.2004 30.5601C53.323 28.7175 52.8843 26.6264 52.8843 24.2867C52.8843 21.8884 53.323 19.7826 54.2004 17.9693C55.0778 16.156 56.2915 14.7376 57.8416 13.7139C59.3917 12.661 61.1757 12.1346 63.1938 12.1346C64.2759 12.1346 65.2703 12.2808 66.177 12.5733C67.0836 12.8658 67.8733 13.2898 68.5459 13.8455C69.2186 14.4012 69.8036 15.03 70.3008 15.732C70.7979 16.4339 71.2074 17.1943 71.5291 18.0132L69.8621 17.9255V12.6172H77.8903V36H69.6866V30.2969L71.4852 30.3846C71.222 31.2328 70.8272 32.0224 70.3008 32.7536C69.8036 33.4848 69.1894 34.1282 68.4582 34.6839C67.727 35.2103 66.9081 35.6344 66.0015 35.9561C65.1241 36.2486 64.1443 36.3948 63.0622 36.3948ZM65.3873 29.6827C66.3232 29.6827 67.1275 29.478 67.8002 29.0685C68.4728 28.6298 68.9846 28.001 69.3356 27.1821C69.7158 26.3632 69.9059 25.398 69.9059 24.2867C69.9059 23.146 69.7158 22.1663 69.3356 21.3473C68.9846 20.5284 68.4728 19.9143 67.8002 19.5048C67.1275 19.0661 66.3232 18.8467 65.3873 18.8467C64.4514 18.8467 63.6471 19.0661 62.9744 19.5048C62.331 19.9143 61.8338 20.5284 61.4828 21.3473C61.1319 22.1663 60.9564 23.146 60.9564 24.2867C60.9564 25.398 61.1319 26.3632 61.4828 27.1821C61.8338 28.001 62.331 28.6298 62.9744 29.0685C63.6471 29.478 64.4514 29.6827 65.3873 29.6827ZM84.0277 36V12.6172H91.6611L92.0998 20.2945L90.3889 18.9784C90.7691 17.6915 91.354 16.5362 92.1437 15.5126C92.9626 14.4597 93.9423 13.6408 95.083 13.0559C96.2236 12.4417 97.4227 12.1346 98.6803 12.1346C99.2068 12.1346 99.704 12.1785 100.172 12.2662C100.64 12.3247 101.079 12.4124 101.488 12.5294L99.2506 21.5667C98.9289 21.362 98.4756 21.1865 97.8907 21.0403C97.3057 20.8648 96.6769 20.777 96.0042 20.777C95.4193 20.777 94.8929 20.8794 94.4249 21.0841C93.957 21.2596 93.5621 21.5228 93.2404 21.8738C92.9187 22.2248 92.6701 22.6488 92.4946 23.146C92.3191 23.614 92.2314 24.1697 92.2314 24.8131V36H84.0277ZM119.849 36.4826C118.767 36.4826 117.744 36.3363 116.779 36.0439C115.813 35.7806 114.951 35.4151 114.19 34.9471C113.43 34.4499 112.801 33.8796 112.304 33.2362C111.807 32.5927 111.485 31.9054 111.339 31.1743L113.006 30.7356L112.435 35.9561H104.977V3.53604H113.181V18.2764L111.426 17.7061C111.602 16.9165 111.938 16.1853 112.435 15.5126C112.962 14.8399 113.591 14.255 114.322 13.7578C115.053 13.2314 115.872 12.8365 116.779 12.5733C117.685 12.2808 118.636 12.1346 119.63 12.1346C121.648 12.1346 123.418 12.661 124.938 13.7139C126.488 14.7376 127.702 16.1707 128.58 18.0132C129.486 19.8558 129.94 21.9615 129.94 24.3305C129.94 26.6995 129.501 28.8053 128.623 30.6478C127.746 32.4611 126.547 33.8942 125.026 34.9471C123.505 35.9708 121.78 36.4826 119.849 36.4826ZM117.48 29.7704C118.416 29.7704 119.206 29.5511 119.849 29.1124C120.522 28.6444 121.034 28.0156 121.385 27.226C121.765 26.407 121.955 25.4419 121.955 24.3305C121.955 23.1899 121.78 22.2101 121.429 21.3912C121.078 20.5723 120.566 19.9581 119.893 19.5487C119.221 19.11 118.416 18.8906 117.48 18.8906C116.545 18.8906 115.74 19.11 115.068 19.5487C114.395 19.9581 113.868 20.5723 113.488 21.3912C113.137 22.2101 112.962 23.1899 112.962 24.3305C112.962 25.4419 113.137 26.407 113.488 27.226C113.868 28.0156 114.395 28.6444 115.068 29.1124C115.74 29.5511 116.545 29.7704 117.48 29.7704ZM142.877 36.3948C140.947 36.3948 139.206 35.883 137.656 34.8594C136.135 33.8065 134.922 32.3734 134.015 30.5601C133.138 28.7175 132.699 26.6264 132.699 24.2867C132.699 21.8884 133.138 19.7826 134.015 17.9693C134.892 16.156 136.106 14.7376 137.656 13.7139C139.206 12.661 140.99 12.1346 143.008 12.1346C144.091 12.1346 145.085 12.2808 145.992 12.5733C146.898 12.8658 147.688 13.2898 148.361 13.8455C149.033 14.4012 149.618 15.03 150.115 15.732C150.613 16.4339 151.022 17.1943 151.344 18.0132L149.677 17.9255V12.6172H157.705V36H149.501V30.2969L151.3 30.3846C151.037 31.2328 150.642 32.0224 150.115 32.7536C149.618 33.4848 149.004 34.1282 148.273 34.6839C147.542 35.2103 146.723 35.6344 145.816 35.9561C144.939 36.2486 143.959 36.3948 142.877 36.3948ZM145.202 29.6827C146.138 29.6827 146.942 29.478 147.615 29.0685C148.287 28.6298 148.799 28.001 149.15 27.1821C149.53 26.3632 149.721 25.398 149.721 24.2867C149.721 23.146 149.53 22.1663 149.15 21.3473C148.799 20.5284 148.287 19.9143 147.615 19.5048C146.942 19.0661 146.138 18.8467 145.202 18.8467C144.266 18.8467 143.462 19.0661 142.789 19.5048C142.146 19.9143 141.648 20.5284 141.297 21.3473C140.947 22.1663 140.771 23.146 140.771 24.2867C140.771 25.398 140.947 26.3632 141.297 27.1821C141.648 28.001 142.146 28.6298 142.789 29.0685C143.462 29.478 144.266 29.6827 145.202 29.6827ZM163.842 36V12.6172H171.476L171.914 20.2945L170.204 18.9784C170.584 17.6915 171.169 16.5362 171.958 15.5126C172.777 14.4597 173.757 13.6408 174.898 13.0559C176.038 12.4417 177.237 12.1346 178.495 12.1346C179.021 12.1346 179.519 12.1785 179.987 12.2662C180.455 12.3247 180.893 12.4124 181.303 12.5294L179.065 21.5667C178.744 21.362 178.29 21.1865 177.705 21.0403C177.12 20.8648 176.492 20.777 175.819 20.777C175.234 20.777 174.708 20.8794 174.24 21.0841C173.772 21.2596 173.377 21.5228 173.055 21.8738C172.733 22.2248 172.485 22.6488 172.309 23.146C172.134 23.614 172.046 24.1697 172.046 24.8131V36H163.842ZM192.274 36.3948C190.343 36.3948 188.603 35.883 187.053 34.8594C185.532 33.8065 184.319 32.3734 183.412 30.5601C182.534 28.7175 182.096 26.6264 182.096 24.2867C182.096 21.8884 182.534 19.7826 183.412 17.9693C184.289 16.156 185.503 14.7376 187.053 13.7139C188.603 12.661 190.387 12.1346 192.405 12.1346C193.487 12.1346 194.482 12.2808 195.388 12.5733C196.295 12.8658 197.085 13.2898 197.757 13.8455C198.43 14.4012 199.015 15.03 199.512 15.732C200.009 16.4339 200.419 17.1943 200.741 18.0132L199.074 17.9255V12.6172H207.102V36H198.898V30.2969L200.697 30.3846C200.434 31.2328 200.039 32.0224 199.512 32.7536C199.015 33.4848 198.401 34.1282 197.67 34.6839C196.939 35.2103 196.12 35.6344 195.213 35.9561C194.336 36.2486 193.356 36.3948 192.274 36.3948ZM194.599 29.6827C195.535 29.6827 196.339 29.478 197.012 29.0685C197.684 28.6298 198.196 28.001 198.547 27.1821C198.927 26.3632 199.117 25.398 199.117 24.2867C199.117 23.146 198.927 22.1663 198.547 21.3473C198.196 20.5284 197.684 19.9143 197.012 19.5048C196.339 19.0661 195.535 18.8467 194.599 18.8467C193.663 18.8467 192.859 19.0661 192.186 19.5048C191.542 19.9143 191.045 20.5284 190.694 21.3473C190.343 22.1663 190.168 23.146 190.168 24.2867C190.168 25.398 190.343 26.3632 190.694 27.1821C191.045 28.001 191.542 28.6298 192.186 29.0685C192.859 29.478 193.663 29.6827 194.599 29.6827ZM216.091 36.4826C214.775 36.4826 213.751 36.117 213.02 35.3858C212.318 34.6546 211.967 33.6164 211.967 32.271C211.967 31.0427 212.347 30.0337 213.108 29.244C213.868 28.4543 214.862 28.0595 216.091 28.0595C217.378 28.0595 218.387 28.4251 219.118 29.1562C219.849 29.8874 220.215 30.9257 220.215 32.271C220.215 33.4994 219.834 34.5084 219.074 35.2981C218.313 36.0877 217.319 36.4826 216.091 36.4826ZM235.9 46.0901C233.881 46.0901 231.878 45.7977 229.889 45.2127C227.901 44.6571 226.277 43.9259 225.02 43.0192L227.784 37.4477C228.427 37.8572 229.1 38.2081 229.802 38.5006C230.533 38.8223 231.293 39.0563 232.083 39.2025C232.872 39.3488 233.706 39.4219 234.583 39.4219C235.987 39.4219 237.128 39.2171 238.005 38.8077C238.912 38.4275 239.57 37.8279 239.979 37.009C240.418 36.1901 240.637 35.1372 240.637 33.8504V30.1653L242.348 30.3846C242.144 31.3498 241.647 32.2272 240.857 33.0168C240.067 33.7772 239.073 34.3914 237.874 34.8594C236.704 35.2981 235.475 35.5174 234.189 35.5174C232.083 35.5174 230.226 35.0495 228.617 34.1136C227.008 33.1484 225.736 31.8177 224.8 30.1214C223.864 28.4251 223.396 26.4363 223.396 24.155C223.396 21.786 223.85 19.7095 224.756 17.9255C225.692 16.1122 226.95 14.6937 228.529 13.6701C230.109 12.6464 231.922 12.1346 233.969 12.1346C234.847 12.1346 235.68 12.2223 236.47 12.3978C237.259 12.5733 237.991 12.8219 238.663 13.1436C239.365 13.4653 239.979 13.8602 240.506 14.3281C241.032 14.7668 241.456 15.2494 241.778 15.7758C242.129 16.3023 242.363 16.858 242.48 17.4429L240.813 17.8377L241.208 12.6172H248.841V33.8504C248.841 35.8099 248.549 37.5355 247.964 39.027C247.379 40.5479 246.516 41.8347 245.375 42.8876C244.264 43.9405 242.904 44.7302 241.296 45.2566C239.716 45.8123 237.918 46.0901 235.9 46.0901ZM236.119 29.5511C237.113 29.5511 237.961 29.3317 238.663 28.893C239.365 28.4543 239.906 27.8401 240.287 27.0505C240.667 26.2608 240.857 25.3103 240.857 24.1989C240.857 23.0875 240.667 22.137 240.287 21.3473C239.906 20.5284 239.365 19.9143 238.663 19.5048C237.961 19.0661 237.113 18.8467 236.119 18.8467C235.124 18.8467 234.276 19.0661 233.574 19.5048C232.872 19.9143 232.331 20.5284 231.951 21.3473C231.6 22.137 231.425 23.0875 231.425 24.1989C231.425 25.3103 231.6 26.2608 231.951 27.0505C232.331 27.8401 232.872 28.4543 233.574 28.893C234.276 29.3317 235.124 29.5511 236.119 29.5511ZM255.059 36V12.6172H263.219V36H255.059ZM259.139 8.18628C257.647 8.18628 256.492 7.84994 255.673 7.17727C254.854 6.47534 254.445 5.49557 254.445 4.23796C254.445 3.06809 254.854 2.11757 255.673 1.3864C256.521 0.62598 257.677 0.245771 259.139 0.245771C260.601 0.245771 261.742 0.596734 262.561 1.29866C263.409 1.97134 263.833 2.9511 263.833 4.23796C263.833 5.40783 263.409 6.35836 262.561 7.08953C261.713 7.8207 260.572 8.18628 259.139 8.18628ZM278.086 36.3948C276.156 36.3948 274.416 35.883 272.866 34.8594C271.345 33.8065 270.131 32.3734 269.224 30.5601C268.347 28.7175 267.908 26.6264 267.908 24.2867C267.908 21.8884 268.347 19.7826 269.224 17.9693C270.102 16.156 271.316 14.7376 272.866 13.7139C274.416 12.661 276.2 12.1346 278.218 12.1346C279.3 12.1346 280.294 12.2808 281.201 12.5733C282.108 12.8658 282.897 13.2898 283.57 13.8455C284.243 14.4012 284.828 15.03 285.325 15.732C285.822 16.4339 286.231 17.1943 286.553 18.0132L284.886 17.9255V12.6172H292.914V36H284.711V30.2969L286.509 30.3846C286.246 31.2328 285.851 32.0224 285.325 32.7536C284.828 33.4848 284.213 34.1282 283.482 34.6839C282.751 35.2103 281.932 35.6344 281.026 35.9561C280.148 36.2486 279.168 36.3948 278.086 36.3948ZM280.411 29.6827C281.347 29.6827 282.152 29.478 282.824 29.0685C283.497 28.6298 284.009 28.001 284.36 27.1821C284.74 26.3632 284.93 25.398 284.93 24.2867C284.93 23.146 284.74 22.1663 284.36 21.3473C284.009 20.5284 283.497 19.9143 282.824 19.5048C282.152 19.0661 281.347 18.8467 280.411 18.8467C279.475 18.8467 278.671 19.0661 277.998 19.5048C277.355 19.9143 276.858 20.5284 276.507 21.3473C276.156 22.1663 275.98 23.146 275.98 24.2867C275.98 25.398 276.156 26.3632 276.507 27.1821C276.858 28.001 277.355 28.6298 277.998 29.0685C278.671 29.478 279.475 29.6827 280.411 29.6827ZM299.052 36V12.6172H306.685L307.036 17.3552L305.369 17.8816C305.661 16.7702 306.232 15.7905 307.08 14.9423C307.928 14.0649 308.937 13.3776 310.107 12.8804C311.277 12.3832 312.505 12.1346 313.792 12.1346C315.547 12.1346 317.024 12.5002 318.223 13.2314C319.451 13.9333 320.373 15.0008 320.987 16.4339C321.63 17.8377 321.952 19.5633 321.952 21.6106V36H313.792V22.2686C313.792 21.5082 313.675 20.8794 313.441 20.3822C313.207 19.8558 312.856 19.4609 312.388 19.1977C311.92 18.9345 311.365 18.8175 310.721 18.8467C310.224 18.8467 309.756 18.9199 309.317 19.0661C308.908 19.2123 308.542 19.4463 308.221 19.768C307.899 20.0605 307.65 20.3968 307.475 20.777C307.329 21.1572 307.255 21.5813 307.255 22.0493V36H303.176C302.181 36 301.333 36 300.631 36C299.958 36 299.432 36 299.052 36ZM336.18 36.3948C334.25 36.3948 332.509 35.883 330.959 34.8594C329.439 33.8065 328.225 32.3734 327.318 30.5601C326.441 28.7175 326.002 26.6264 326.002 24.2867C326.002 21.8884 326.441 19.7826 327.318 17.9693C328.196 16.156 329.409 14.7376 330.959 13.7139C332.509 12.661 334.294 12.1346 336.312 12.1346C337.394 12.1346 338.388 12.2808 339.295 12.5733C340.201 12.8658 340.991 13.2898 341.664 13.8455C342.336 14.4012 342.921 15.03 343.419 15.732C343.916 16.4339 344.325 17.1943 344.647 18.0132L342.98 17.9255V12.6172H351.008V36H342.804V30.2969L344.603 30.3846C344.34 31.2328 343.945 32.0224 343.419 32.7536C342.921 33.4848 342.307 34.1282 341.576 34.6839C340.845 35.2103 340.026 35.6344 339.119 35.9561C338.242 36.2486 337.262 36.3948 336.18 36.3948ZM338.505 29.6827C339.441 29.6827 340.245 29.478 340.918 29.0685C341.591 28.6298 342.102 28.001 342.453 27.1821C342.834 26.3632 343.024 25.398 343.024 24.2867C343.024 23.146 342.834 22.1663 342.453 21.3473C342.102 20.5284 341.591 19.9143 340.918 19.5048C340.245 19.0661 339.441 18.8467 338.505 18.8467C337.569 18.8467 336.765 19.0661 336.092 19.5048C335.449 19.9143 334.952 20.5284 334.601 21.3473C334.25 22.1663 334.074 23.146 334.074 24.2867C334.074 25.398 334.25 26.3632 334.601 27.1821C334.952 28.001 335.449 28.6298 336.092 29.0685C336.765 29.478 337.569 29.6827 338.505 29.6827ZM356.268 36V31.8762L368.903 15.9952V19.11H356.268V12.6172H376.712V17.0042L364.998 32.3149L364.823 29.5072H377.15V36H356.268ZM382.857 36V12.6172H391.017V36H382.857ZM386.937 8.18628C385.445 8.18628 384.29 7.84994 383.471 7.17727C382.652 6.47534 382.243 5.49557 382.243 4.23796C382.243 3.06809 382.652 2.11757 383.471 1.3864C384.319 0.62598 385.474 0.245771 386.937 0.245771C388.399 0.245771 389.54 0.596734 390.359 1.29866C391.207 1.97134 391.631 2.9511 391.631 4.23796C391.631 5.40783 391.207 6.35836 390.359 7.08953C389.51 7.8207 388.37 8.18628 386.937 8.18628Z" fill="#222222"/>
<path d="M394.478 42.4051L412.815 5.29085H420.975L402.725 42.4051H394.478Z" fill="#0AC628"/>
</svg>
