<svg width="205" height="22" viewBox="0 0 205 22" fill="none" xmlns="http://www.w3.org/2000/svg">
<path d="M8.83208 17.2833L0.766253 12.6656V10.5685L8.83208 5.95084L10.3041 8.97552L3.62962 12.3228V10.9113L10.3041 14.2586L8.83208 17.2833ZM196.101 17.2833L194.629 14.2586L201.303 10.9113V12.3228L194.629 8.97552L196.101 5.95084L204.167 10.5685V12.6656L196.101 17.2833Z" fill="#989898"/>
<path d="M18.8613 17.0817C18.3639 17.0817 17.8934 17.0145 17.4497 16.88C17.0061 16.759 16.6096 16.591 16.26 16.3759C15.9105 16.1474 15.6215 15.8852 15.393 15.5895C15.1644 15.2937 15.0166 14.9778 14.9493 14.6418L15.7156 14.4401L15.4535 16.8397H12.0255V1.93809H15.7963V8.71338L14.9897 8.45124C15.0703 8.08828 15.2249 7.7522 15.4535 7.44301C15.6954 7.13382 15.9845 6.86496 16.3205 6.63643C16.6566 6.39446 17.033 6.21297 17.4497 6.09199C17.8665 5.95756 18.3034 5.89034 18.7604 5.89034C19.688 5.89034 20.5013 6.13232 21.2004 6.61627C21.9128 7.08677 22.4707 7.74548 22.874 8.59239C23.2908 9.4393 23.4991 10.4072 23.4991 11.4961C23.4991 12.585 23.2975 13.5529 22.8942 14.3998C22.4909 15.2333 21.9397 15.892 21.2407 16.3759C20.5416 16.8464 19.7485 17.0817 18.8613 17.0817ZM17.7724 13.9965C18.2026 13.9965 18.5655 13.8957 18.8613 13.694C19.1705 13.4789 19.4057 13.1899 19.567 12.827C19.7418 12.4505 19.8292 12.0069 19.8292 11.4961C19.8292 10.9718 19.7485 10.5215 19.5872 10.1451C19.4259 9.76866 19.1906 9.48636 18.8814 9.29815C18.5722 9.09651 18.2026 8.99568 17.7724 8.99568C17.3422 8.99568 16.9725 9.09651 16.6633 9.29815C16.3541 9.48636 16.1122 9.76866 15.9374 10.1451C15.7761 10.5215 15.6954 10.9718 15.6954 11.4961C15.6954 12.0069 15.7761 12.4505 15.9374 12.827C16.1122 13.1899 16.3541 13.4789 16.6633 13.694C16.9725 13.8957 17.3422 13.9965 17.7724 13.9965ZM29.4456 17.0413C28.5584 17.0413 27.7585 16.8061 27.046 16.3356C26.347 15.8516 25.7891 15.1929 25.3724 14.3595C24.9691 13.5125 24.7674 12.5514 24.7674 11.4759C24.7674 10.3736 24.9691 9.4057 25.3724 8.57223C25.7757 7.73876 26.3335 7.08677 27.046 6.61627C27.7585 6.13232 28.5785 5.89034 29.5061 5.89034C30.0035 5.89034 30.4606 5.95756 30.8773 6.09199C31.294 6.22642 31.657 6.42134 31.9662 6.67676C32.2754 6.93218 32.5442 7.2212 32.7728 7.54384C33.0013 7.86647 33.1895 8.21599 33.3374 8.59239L32.5711 8.55206V6.11215H36.2612V16.8599H32.4905V14.2385L33.3172 14.2788C33.1962 14.6686 33.0147 15.0316 32.7728 15.3677C32.5442 15.7038 32.2619 15.9995 31.9259 16.2549C31.5898 16.4969 31.2134 16.6918 30.7966 16.8397C30.3933 16.9741 29.943 17.0413 29.4456 17.0413ZM30.5143 13.9562C30.9445 13.9562 31.3142 13.8621 31.6234 13.6739C31.9326 13.4722 32.1678 13.1832 32.3291 12.8068C32.5039 12.4304 32.5913 11.9868 32.5913 11.4759C32.5913 10.9516 32.5039 10.5013 32.3291 10.1249C32.1678 9.74849 31.9326 9.46619 31.6234 9.27799C31.3142 9.07634 30.9445 8.97552 30.5143 8.97552C30.0842 8.97552 29.7145 9.07634 29.4053 9.27799C29.1095 9.46619 28.881 9.74849 28.7197 10.1249C28.5584 10.5013 28.4777 10.9516 28.4777 11.4759C28.4777 11.9868 28.5584 12.4304 28.7197 12.8068C28.881 13.1832 29.1095 13.4722 29.4053 13.6739C29.7145 13.8621 30.0842 13.9562 30.5143 13.9562ZM39.0822 16.8599V6.11215H42.5909L42.7925 9.64095L42.0061 9.03601C42.1808 8.44452 42.4497 7.91352 42.8127 7.44301C43.1891 6.95906 43.6394 6.58266 44.1637 6.3138C44.688 6.03149 45.2391 5.89034 45.8172 5.89034C46.0592 5.89034 46.2877 5.91051 46.5028 5.95084C46.7179 5.97772 46.9195 6.01805 47.1077 6.07182L46.0793 10.2257C45.9315 10.1316 45.7231 10.051 45.4542 9.98375C45.1854 9.90309 44.8963 9.86276 44.5872 9.86276C44.3183 9.86276 44.0763 9.90981 43.8612 10.0039C43.6461 10.0846 43.4647 10.2056 43.3168 10.3669C43.1689 10.5282 43.0546 10.7231 42.974 10.9516C42.8933 11.1667 42.853 11.4222 42.853 11.7179V16.8599H39.0822ZM55.5474 17.0817C55.05 17.0817 54.5795 17.0145 54.1359 16.88C53.6922 16.759 53.2957 16.591 52.9461 16.3759C52.5966 16.1474 52.3076 15.8852 52.0791 15.5895C51.8505 15.2937 51.7027 14.9778 51.6355 14.6418L52.4017 14.4401L52.1396 16.8397H48.7116V1.93809H52.4824V8.71338L51.6758 8.45124C51.7564 8.08828 51.911 7.7522 52.1396 7.44301C52.3815 7.13382 52.6706 6.86496 53.0066 6.63643C53.3427 6.39446 53.7191 6.21297 54.1359 6.09199C54.5526 5.95756 54.9895 5.89034 55.4466 5.89034C56.3741 5.89034 57.1874 6.13232 57.8865 6.61627C58.5989 7.08677 59.1568 7.74548 59.5601 8.59239C59.9769 9.4393 60.1852 10.4072 60.1852 11.4961C60.1852 12.585 59.9836 13.5529 59.5803 14.3998C59.177 15.2333 58.6258 15.892 57.9268 16.3759C57.2278 16.8464 56.4346 17.0817 55.5474 17.0817ZM54.4585 13.9965C54.8887 13.9965 55.2516 13.8957 55.5474 13.694C55.8566 13.4789 56.0918 13.1899 56.2531 12.827C56.4279 12.4505 56.5153 12.0069 56.5153 11.4961C56.5153 10.9718 56.4346 10.5215 56.2733 10.1451C56.112 9.76866 55.8767 9.48636 55.5675 9.29815C55.2584 9.09651 54.8887 8.99568 54.4585 8.99568C54.0283 8.99568 53.6586 9.09651 53.3494 9.29815C53.0403 9.48636 52.7983 9.76866 52.6235 10.1451C52.4622 10.5215 52.3815 10.9718 52.3815 11.4961C52.3815 12.0069 52.4622 12.4505 52.6235 12.827C52.7983 13.1899 53.0403 13.4789 53.3494 13.694C53.6586 13.8957 54.0283 13.9965 54.4585 13.9965ZM66.1317 17.0413C65.2445 17.0413 64.4446 16.8061 63.7321 16.3356C63.0331 15.8516 62.4752 15.1929 62.0585 14.3595C61.6552 13.5125 61.4535 12.5514 61.4535 11.4759C61.4535 10.3736 61.6552 9.4057 62.0585 8.57223C62.4618 7.73876 63.0197 7.08677 63.7321 6.61627C64.4446 6.13232 65.2646 5.89034 66.1922 5.89034C66.6896 5.89034 67.1467 5.95756 67.5634 6.09199C67.9801 6.22642 68.3431 6.42134 68.6523 6.67676C68.9615 6.93218 69.2303 7.2212 69.4589 7.54384C69.6874 7.86647 69.8756 8.21599 70.0235 8.59239L69.2572 8.55206V6.11215H72.9473V16.8599H69.1766V14.2385L70.0033 14.2788C69.8823 14.6686 69.7009 15.0316 69.4589 15.3677C69.2303 15.7038 68.948 15.9995 68.612 16.2549C68.2759 16.4969 67.8995 16.6918 67.4828 16.8397C67.0795 16.9741 66.6291 17.0413 66.1317 17.0413ZM67.2004 13.9562C67.6306 13.9562 68.0003 13.8621 68.3095 13.6739C68.6187 13.4722 68.8539 13.1832 69.0153 12.8068C69.19 12.4304 69.2774 11.9868 69.2774 11.4759C69.2774 10.9516 69.19 10.5013 69.0153 10.1249C68.8539 9.74849 68.6187 9.46619 68.3095 9.27799C68.0003 9.07634 67.6306 8.97552 67.2004 8.97552C66.7703 8.97552 66.4006 9.07634 66.0914 9.27799C65.7956 9.46619 65.5671 9.74849 65.4058 10.1249C65.2445 10.5013 65.1638 10.9516 65.1638 11.4759C65.1638 11.9868 65.2445 12.4304 65.4058 12.8068C65.5671 13.1832 65.7956 13.4722 66.0914 13.6739C66.4006 13.8621 66.7703 13.9562 67.2004 13.9562ZM75.7683 16.8599V6.11215H79.277L79.4786 9.64095L78.6922 9.03601C78.867 8.44452 79.1358 7.91352 79.4988 7.44301C79.8752 6.95906 80.3255 6.58266 80.8498 6.3138C81.3741 6.03149 81.9252 5.89034 82.5033 5.89034C82.7453 5.89034 82.9738 5.91051 83.1889 5.95084C83.404 5.97772 83.6056 6.01805 83.7938 6.07182L82.7654 10.2257C82.6176 10.1316 82.4092 10.051 82.1403 9.98375C81.8715 9.90309 81.5824 9.86276 81.2733 9.86276C81.0044 9.86276 80.7624 9.90981 80.5473 10.0039C80.3322 10.0846 80.1508 10.2056 80.0029 10.3669C79.855 10.5282 79.7407 10.7231 79.6601 10.9516C79.5794 11.1667 79.5391 11.4222 79.5391 11.7179V16.8599H75.7683ZM88.8365 17.0413C87.9493 17.0413 87.1494 16.8061 86.437 16.3356C85.7379 15.8516 85.18 15.1929 84.7633 14.3595C84.36 13.5125 84.1584 12.5514 84.1584 11.4759C84.1584 10.3736 84.36 9.4057 84.7633 8.57223C85.1666 7.73876 85.7245 7.08677 86.437 6.61627C87.1494 6.13232 87.9695 5.89034 88.897 5.89034C89.3944 5.89034 89.8515 5.95756 90.2682 6.09199C90.685 6.22642 91.0479 6.42134 91.3571 6.67676C91.6663 6.93218 91.9352 7.2212 92.1637 7.54384C92.3922 7.86647 92.5804 8.21599 92.7283 8.59239L91.9621 8.55206V6.11215H95.6522V16.8599H91.8814V14.2385L92.7081 14.2788C92.5872 14.6686 92.4057 15.0316 92.1637 15.3677C91.9352 15.7038 91.6529 15.9995 91.3168 16.2549C90.9807 16.4969 90.6043 16.6918 90.1876 16.8397C89.7843 16.9741 89.3339 17.0413 88.8365 17.0413ZM89.9053 13.9562C90.3354 13.9562 90.7051 13.8621 91.0143 13.6739C91.3235 13.4722 91.5588 13.1832 91.7201 12.8068C91.8948 12.4304 91.9822 11.9868 91.9822 11.4759C91.9822 10.9516 91.8948 10.5013 91.7201 10.1249C91.5588 9.74849 91.3235 9.46619 91.0143 9.27799C90.7051 9.07634 90.3354 8.97552 89.9053 8.97552C89.4751 8.97552 89.1054 9.07634 88.7962 9.27799C88.5005 9.46619 88.2719 9.74849 88.1106 10.1249C87.9493 10.5013 87.8686 10.9516 87.8686 11.4759C87.8686 11.9868 87.9493 12.4304 88.1106 12.8068C88.2719 13.1832 88.5005 13.4722 88.7962 13.6739C89.1054 13.8621 89.4751 13.9562 89.9053 13.9562ZM99.7839 17.0817C99.1789 17.0817 98.7084 16.9136 98.3723 16.5776C98.0497 16.2415 97.8884 15.7643 97.8884 15.1459C97.8884 14.5813 98.0631 14.1175 98.4127 13.7545C98.7622 13.3916 99.2192 13.2101 99.7839 13.2101C100.375 13.2101 100.839 13.3781 101.175 13.7142C101.511 14.0503 101.679 14.5275 101.679 15.1459C101.679 15.7105 101.505 16.1743 101.155 16.5372C100.806 16.9002 100.348 17.0817 99.7839 17.0817ZM108.889 21.4977C107.961 21.4977 107.04 21.3633 106.126 21.0944C105.212 20.839 104.466 20.5029 103.888 20.0862L105.158 17.5253C105.454 17.7135 105.763 17.8748 106.086 18.0092C106.422 18.1571 106.772 18.2647 107.134 18.3319C107.497 18.3991 107.881 18.4327 108.284 18.4327C108.929 18.4327 109.453 18.3386 109.857 18.1504C110.273 17.9756 110.576 17.7001 110.764 17.3236C110.966 16.9472 111.067 16.4633 111.067 15.8718V14.178L111.853 14.2788C111.759 14.7224 111.53 15.1257 111.167 15.4887C110.804 15.8382 110.347 16.1205 109.796 16.3356C109.258 16.5372 108.694 16.6381 108.102 16.6381C107.134 16.6381 106.281 16.423 105.541 15.9928C104.802 15.5492 104.217 14.9375 103.787 14.1578C103.357 13.3781 103.142 12.464 103.142 11.4154C103.142 10.3265 103.35 9.37209 103.767 8.55206C104.197 7.7186 104.775 7.06661 105.501 6.5961C106.227 6.1256 107.061 5.89034 108.002 5.89034C108.405 5.89034 108.788 5.93067 109.151 6.01133C109.514 6.09199 109.85 6.20625 110.159 6.35413C110.482 6.502 110.764 6.68348 111.006 6.89857C111.248 7.10022 111.443 7.32203 111.591 7.564C111.752 7.80598 111.86 8.06139 111.913 8.33025L111.147 8.51173L111.329 6.11215H114.837V15.8718C114.837 16.7725 114.703 17.5656 114.434 18.2512C114.165 18.9503 113.769 19.5417 113.244 20.0257C112.733 20.5096 112.108 20.8726 111.369 21.1146C110.643 21.37 109.816 21.4977 108.889 21.4977ZM108.99 13.8957C109.447 13.8957 109.837 13.7949 110.159 13.5932C110.482 13.3916 110.73 13.1093 110.905 12.7463C111.08 12.3833 111.167 11.9464 111.167 11.4356C111.167 10.9248 111.08 10.4879 110.905 10.1249C110.73 9.74849 110.482 9.46619 110.159 9.27799C109.837 9.07634 109.447 8.97552 108.99 8.97552C108.533 8.97552 108.143 9.07634 107.82 9.27799C107.497 9.46619 107.249 9.74849 107.074 10.1249C106.913 10.4879 106.832 10.9248 106.832 11.4356C106.832 11.9464 106.913 12.3833 107.074 12.7463C107.249 13.1093 107.497 13.3916 107.82 13.5932C108.143 13.7949 108.533 13.8957 108.99 13.8957ZM117.695 16.8599V6.11215H121.446V16.8599H117.695ZM119.571 4.07553C118.885 4.07553 118.354 3.92094 117.978 3.61175C117.601 3.28911 117.413 2.83877 117.413 2.26072C117.413 1.723 117.601 1.2861 117.978 0.950024C118.367 0.600505 118.898 0.425745 119.571 0.425745C120.243 0.425745 120.767 0.587062 121.143 0.909696C121.533 1.21889 121.728 1.66923 121.728 2.26072C121.728 2.79844 121.533 3.23534 121.143 3.57142C120.754 3.90749 120.229 4.07553 119.571 4.07553ZM128.28 17.0413C127.392 17.0413 126.592 16.8061 125.88 16.3356C125.181 15.8516 124.623 15.1929 124.206 14.3595C123.803 13.5125 123.601 12.5514 123.601 11.4759C123.601 10.3736 123.803 9.4057 124.206 8.57223C124.61 7.73876 125.167 7.08677 125.88 6.61627C126.592 6.13232 127.412 5.89034 128.34 5.89034C128.837 5.89034 129.294 5.95756 129.711 6.09199C130.128 6.22642 130.491 6.42134 130.8 6.67676C131.109 6.93218 131.378 7.2212 131.607 7.54384C131.835 7.86647 132.023 8.21599 132.171 8.59239L131.405 8.55206V6.11215H135.095V16.8599H131.324V14.2385L132.151 14.2788C132.03 14.6686 131.849 15.0316 131.607 15.3677C131.378 15.7038 131.096 15.9995 130.76 16.2549C130.424 16.4969 130.047 16.6918 129.631 16.8397C129.227 16.9741 128.777 17.0413 128.28 17.0413ZM129.348 13.9562C129.778 13.9562 130.148 13.8621 130.457 13.6739C130.766 13.4722 131.002 13.1832 131.163 12.8068C131.338 12.4304 131.425 11.9868 131.425 11.4759C131.425 10.9516 131.338 10.5013 131.163 10.1249C131.002 9.74849 130.766 9.46619 130.457 9.27799C130.148 9.07634 129.778 8.97552 129.348 8.97552C128.918 8.97552 128.548 9.07634 128.239 9.27799C127.943 9.46619 127.715 9.74849 127.554 10.1249C127.392 10.5013 127.312 10.9516 127.312 11.4759C127.312 11.9868 127.392 12.4304 127.554 12.8068C127.715 13.1832 127.943 13.4722 128.239 13.6739C128.548 13.8621 128.918 13.9562 129.348 13.9562ZM137.916 16.8599V6.11215H141.425L141.586 8.28992L140.82 8.5319C140.954 8.02106 141.216 7.57072 141.606 7.18087C141.996 6.77758 142.46 6.46167 142.998 6.23314C143.535 6.00461 144.1 5.89034 144.691 5.89034C145.498 5.89034 146.177 6.05838 146.728 6.39446C147.293 6.71709 147.716 7.20776 147.998 7.86647C148.294 8.51173 148.442 9.30487 148.442 10.2459V16.8599H144.691V10.5484C144.691 10.1988 144.638 9.90981 144.53 9.68128C144.423 9.4393 144.261 9.25782 144.046 9.13684C143.831 9.01585 143.576 8.96208 143.28 8.97552C143.051 8.97552 142.836 9.00913 142.635 9.07634C142.446 9.14356 142.278 9.2511 142.131 9.39898C141.983 9.53341 141.868 9.688 141.788 9.86276C141.721 10.0375 141.687 10.2324 141.687 10.4475V16.8599H139.812C139.355 16.8599 138.965 16.8599 138.642 16.8599C138.333 16.8599 138.091 16.8599 137.916 16.8599ZM154.982 17.0413C154.095 17.0413 153.295 16.8061 152.582 16.3356C151.883 15.8516 151.325 15.1929 150.909 14.3595C150.505 13.5125 150.304 12.5514 150.304 11.4759C150.304 10.3736 150.505 9.4057 150.909 8.57223C151.312 7.73876 151.87 7.08677 152.582 6.61627C153.295 6.13232 154.115 5.89034 155.042 5.89034C155.54 5.89034 155.997 5.95756 156.414 6.09199C156.83 6.22642 157.193 6.42134 157.502 6.67676C157.812 6.93218 158.08 7.2212 158.309 7.54384C158.538 7.86647 158.726 8.21599 158.874 8.59239L158.107 8.55206V6.11215H161.797V16.8599H158.027V14.2385L158.853 14.2788C158.732 14.6686 158.551 15.0316 158.309 15.3677C158.08 15.7038 157.798 15.9995 157.462 16.2549C157.126 16.4969 156.75 16.6918 156.333 16.8397C155.93 16.9741 155.479 17.0413 154.982 17.0413ZM156.051 13.9562C156.481 13.9562 156.85 13.8621 157.16 13.6739C157.469 13.4722 157.704 13.1832 157.865 12.8068C158.04 12.4304 158.127 11.9868 158.127 11.4759C158.127 10.9516 158.04 10.5013 157.865 10.1249C157.704 9.74849 157.469 9.46619 157.16 9.27799C156.85 9.07634 156.481 8.97552 156.051 8.97552C155.62 8.97552 155.251 9.07634 154.941 9.27799C154.646 9.46619 154.417 9.74849 154.256 10.1249C154.095 10.5013 154.014 10.9516 154.014 11.4759C154.014 11.9868 154.095 12.4304 154.256 12.8068C154.417 13.1832 154.646 13.4722 154.941 13.6739C155.251 13.8621 155.62 13.9562 156.051 13.9562ZM164.215 16.8599V14.9644L170.023 7.66482V9.09651H164.215V6.11215H173.612V8.12861L168.228 15.166L168.147 13.8755H173.813V16.8599H164.215ZM176.436 16.8599V6.11215H180.187V16.8599H176.436ZM178.312 4.07553C177.626 4.07553 177.095 3.92094 176.719 3.61175C176.342 3.28911 176.154 2.83877 176.154 2.26072C176.154 1.723 176.342 1.2861 176.719 0.950024C177.109 0.600505 177.64 0.425745 178.312 0.425745C178.984 0.425745 179.508 0.587062 179.885 0.909696C180.274 1.21889 180.469 1.66923 180.469 2.26072C180.469 2.79844 180.274 3.23534 179.885 3.57142C179.495 3.90749 178.97 4.07553 178.312 4.07553Z" fill="#F1F1F1"/>
<path d="M181.778 19.8039L190.207 2.74467H193.957L185.569 19.8039H181.778Z" fill="#0AC628"/>
</svg>
