<svg width="270" height="59" viewBox="0 0 270 59" fill="none" xmlns="http://www.w3.org/2000/svg">
<path fill-rule="evenodd" clip-rule="evenodd" d="M92.0126 9.2816V7.20316L86.267 9.33873H86.2561V11.4716H86.267L92.0126 13.6072V11.526L89.0664 10.3997L92.0126 9.27888V9.2816Z" fill="#F7DD43"/>
<path fill-rule="evenodd" clip-rule="evenodd" d="M125.292 13.5037V11.4253L128.236 10.3072L125.292 9.18905V7.1106L131.03 9.24618H131.043V11.3817H131.03L125.292 13.5064V13.5037ZM122.827 4.16977L119.454 15H121.456L124.83 4.16977H122.827Z" fill="#F7DD43"/>
<path fill-rule="evenodd" clip-rule="evenodd" d="M100.454 6.91747C101.026 7.54317 101.325 8.3702 101.29 9.21627V13.8302H99.2873V9.64066C99.3118 9.17274 99.1621 8.7157 98.8683 8.35116C98.5908 8.02742 98.1801 7.84787 97.7529 7.86691C96.4988 7.86691 95.8704 8.73746 95.8704 10.4758V13.8302H93.8681V6.25639H95.8704V6.93923C96.507 6.32168 97.3694 5.99251 98.2562 6.03059C99.0833 5.99523 99.8831 6.31896 100.454 6.91747V6.91747Z" fill="#F7DD43"/>
<path fill-rule="evenodd" clip-rule="evenodd" d="M103.841 3V13.8302H105.844V3H103.841Z" fill="#F7DD43"/>
<path fill-rule="evenodd" clip-rule="evenodd" d="M117.166 13.8302H115.496L113.858 9.36862L112.204 13.8302H110.534L107.726 6.2428H109.867L111.445 10.7806L113.072 6.2428H114.636L116.263 10.7942L117.841 6.2428H119.982L117.172 13.8302H117.166Z" fill="#F7DD43"/>
<path d="M140.58 17.9981C138.653 17.9981 136.629 17.6331 135.043 16.754V1.24411C136.605 0.389878 138.628 2.85548e-05 140.58 2.85548e-05C142.531 2.85548e-05 144.507 0.365035 146.066 1.24411V7.19505H142.139V3.14558C141.676 2.95066 141.115 2.87804 140.555 2.87804C139.995 2.87804 139.481 2.95066 138.993 3.14558V14.8525C139.456 15.0475 139.993 15.1201 140.555 15.1201C141.117 15.1201 141.652 15.0475 142.139 14.8525V10.805H146.066V16.7559C144.53 17.6102 142.506 17.9752 140.58 18V17.9981Z" fill="#F7DD43"/>
<path d="M153.431 17.9981C151.358 17.9981 149.359 17.5585 147.773 16.6565V1.3167C149.334 0.439536 151.335 0 153.431 0C155.528 0 157.479 0.414693 159.04 1.3167V16.6565C157.504 17.5585 155.48 17.9732 153.431 17.9981ZM155.115 3.19524C154.652 3.00031 154.091 2.90285 153.408 2.90285C152.726 2.90285 152.189 3.00031 151.725 3.19524V14.7799C152.187 14.9997 152.749 15.0971 153.408 15.0971C154.068 15.0971 154.628 14.9997 155.115 14.7799V3.19524Z" fill="#F7DD43"/>
<path d="M165.893 11.4127H164.844V17.7783H160.869V0.219779H165.893C168.284 0.219779 170.088 0.707092 171.502 1.70656V9.92589C170.113 10.9024 168.282 11.4127 165.893 11.4127ZM167.552 3.24303C167.187 2.97548 166.698 2.85318 165.868 2.85318H164.794V8.77927H165.868C166.673 8.77927 167.16 8.65697 167.552 8.41427V3.24303Z" fill="#F7DD43"/>
<path d="M179.817 17.7783V11.4127H176.891V17.7783H172.941V1.29185C174.38 0.437625 176.404 0 178.355 0C180.306 0 182.305 0.439537 183.744 1.29185V17.7783H179.817ZM179.817 3.04809C179.402 2.85316 178.89 2.7557 178.353 2.7557C177.816 2.7557 177.304 2.85316 176.889 3.04809V8.63211H179.815V3.04809H179.817Z" fill="#F7DD43"/>
<path d="M60.9947 58.2383C61.8912 57.9043 62.4713 57.6406 62.7349 57.4473C62.981 57.2539 63.1568 57.0957 63.2798 56.9551V52.2441H59.7994V55.2324L59.606 55.373C59.3248 55.5664 58.692 55.7598 58.0591 55.7598C57.3384 55.7773 56.7759 55.6016 56.3365 55.2324V36.3711L56.5123 36.2129C56.8111 36.0195 57.4263 35.8262 58.0591 35.8262C58.7798 35.8262 59.3599 36.002 59.7994 36.3711V39.3242H63.2798V34.6309L62.7877 34.209C62.4537 33.8926 61.8384 33.5762 60.9595 33.2773C60.0806 32.9785 59.1138 32.8379 58.0591 32.8379C57.0045 32.8379 56.0377 32.9961 55.1412 33.3301C54.2447 33.6641 53.6646 33.9277 53.4009 34.1211C53.1373 34.3145 52.9615 34.4902 52.8384 34.6309V56.9551L53.3482 57.3945C53.6822 57.6934 54.2974 57.9922 55.1763 58.291C56.8814 58.8887 59.2193 58.9062 60.9947 58.2383Z" fill="url(#paint0_linear_122_239)"/>
<path d="M69.0497 58.3965H72.5126L73.1454 53.9316H77.2938L77.9442 58.3965H81.3895L77.0477 33.1895H73.4091L69.0497 58.3965ZM74.8505 42.4883L75.0263 39.4648H75.413L75.6063 42.4883L76.8544 50.9434H73.5848L74.8505 42.4883Z" fill="url(#paint1_linear_122_239)"/>
<path d="M87.8625 33.1895V58.3965H96.3703V55.4082H91.3605V33.1895H87.8625Z" fill="url(#paint2_linear_122_239)"/>
<path d="M103.195 58.3965H111.703V55.4082H106.693V47.0586H110.912V44.0703H106.693V36.1777H111.703V33.1895H103.195V58.3965Z" fill="url(#paint3_linear_122_239)"/>
<path d="M127.264 51.2598H126.877L126.332 47.2695L123.484 33.1895H119.265V58.3965H122.482V44.2812L122.078 40.6777H122.482L123.01 44.3164L125.857 58.3965H130.076V33.1895H126.877V47.3047L127.264 51.2598Z" fill="url(#paint4_linear_122_239)"/>
<path d="M149.135 45.793C149.135 44.2988 149.012 42.8398 148.766 41.416C148.502 39.9922 148.221 38.832 147.904 37.9355C147.588 37.0391 147.236 36.1602 146.85 35.334C146.445 34.5078 146.182 33.9805 146.024 33.7344C145.865 33.4883 145.725 33.3125 145.637 33.1895H138.36V58.3965H145.637L146.498 57.0254C147.078 56.0938 147.658 54.5645 148.256 52.4727C148.836 50.3809 149.135 48.1484 149.135 45.793ZM143.774 36.1777L144.195 37.3379C144.494 38.0938 144.776 39.2891 145.074 40.8887C145.356 42.5059 145.496 44.1406 145.496 45.793C145.496 47.4629 145.338 49.1328 145.022 50.8027C144.688 52.4727 144.442 53.5801 144.248 54.125C144.055 54.6699 143.897 55.0918 143.774 55.4082H141.858V36.1777H143.774Z" fill="url(#paint5_linear_122_239)"/>
<path d="M154.5 58.3965H157.963L158.596 53.9316H162.745L163.395 58.3965H166.84L162.499 33.1895H158.86L154.5 58.3965ZM160.301 42.4883L160.477 39.4648H160.864L161.057 42.4883L162.305 50.9434H159.036L160.301 42.4883ZM161.918 30.6758L165.153 26H161.918L159.405 30.6758H161.918Z" fill="url(#paint6_linear_122_239)"/>
<path d="M181.891 46.8125C182.331 46.1797 182.753 45.2656 183.192 44.0527C183.614 42.8574 183.825 41.6797 183.825 40.502C183.825 39.2363 183.614 37.9707 183.192 36.6875C182.753 35.4219 182.401 34.5781 182.138 34.1387C181.874 33.7168 181.645 33.4004 181.487 33.1895H173.313V58.3965H176.811V47.7793H178.042L178.657 50.873L180.591 58.3965H184.44L181.241 47.709L181.891 46.8125ZM176.811 44.791V36.1777H179.589L179.764 36.6875C179.888 37.0215 180.011 37.5488 180.151 38.2695C180.274 38.9902 180.345 39.7285 180.345 40.502C180.345 42.2422 180.098 43.666 179.589 44.791H176.811Z" fill="url(#paint7_linear_122_239)"/>
<path d="M199.351 33.1895H190.737V36.1777H193.304V55.373H190.737V58.3965H199.351V55.373H196.784V36.1777H199.351V33.1895Z" fill="url(#paint8_linear_122_239)"/>
<path d="M214.876 58.2383C215.773 57.9043 216.353 57.6406 216.617 57.4473C216.863 57.2539 217.039 57.0957 217.162 56.9551V34.6309L216.669 34.209C216.335 33.8926 215.72 33.5762 214.841 33.2773C213.962 32.9785 212.996 32.8379 211.941 32.8379C210.886 32.8379 209.919 32.9961 209.023 33.3301C208.126 33.6641 207.546 33.9277 207.283 34.1211C207.019 34.3145 206.843 34.4902 206.72 34.6309V56.9551L207.23 57.3945C207.564 57.6934 208.179 57.9922 209.058 58.291C210.763 58.8887 213.101 58.9062 214.876 58.2383ZM211.941 35.8262C212.662 35.8262 213.242 36.002 213.681 36.3711V55.2324L213.488 55.373C213.206 55.5664 212.574 55.7598 211.941 55.7598C211.22 55.7773 210.658 55.6016 210.218 55.2324V36.3711L210.394 36.2129C210.693 36.0195 211.308 35.8262 211.941 35.8262Z" fill="url(#paint9_linear_122_239)"/>
<defs>
<linearGradient id="paint0_linear_122_239" x1="135" y1="24.3965" x2="135" y2="69.3965" gradientUnits="userSpaceOnUse">
<stop stop-color="white"/>
<stop offset="1" stop-color="#D9D9D9" stop-opacity="0.8"/>
</linearGradient>
<linearGradient id="paint1_linear_122_239" x1="135" y1="24.3965" x2="135" y2="69.3965" gradientUnits="userSpaceOnUse">
<stop stop-color="white"/>
<stop offset="1" stop-color="#D9D9D9" stop-opacity="0.8"/>
</linearGradient>
<linearGradient id="paint2_linear_122_239" x1="135" y1="24.3965" x2="135" y2="69.3965" gradientUnits="userSpaceOnUse">
<stop stop-color="white"/>
<stop offset="1" stop-color="#D9D9D9" stop-opacity="0.8"/>
</linearGradient>
<linearGradient id="paint3_linear_122_239" x1="135" y1="24.3965" x2="135" y2="69.3965" gradientUnits="userSpaceOnUse">
<stop stop-color="white"/>
<stop offset="1" stop-color="#D9D9D9" stop-opacity="0.8"/>
</linearGradient>
<linearGradient id="paint4_linear_122_239" x1="135" y1="24.3965" x2="135" y2="69.3965" gradientUnits="userSpaceOnUse">
<stop stop-color="white"/>
<stop offset="1" stop-color="#D9D9D9" stop-opacity="0.8"/>
</linearGradient>
<linearGradient id="paint5_linear_122_239" x1="135" y1="24.3965" x2="135" y2="69.3965" gradientUnits="userSpaceOnUse">
<stop stop-color="white"/>
<stop offset="1" stop-color="#D9D9D9" stop-opacity="0.8"/>
</linearGradient>
<linearGradient id="paint6_linear_122_239" x1="135" y1="24.3965" x2="135" y2="69.3965" gradientUnits="userSpaceOnUse">
<stop stop-color="white"/>
<stop offset="1" stop-color="#D9D9D9" stop-opacity="0.8"/>
</linearGradient>
<linearGradient id="paint7_linear_122_239" x1="135" y1="24.3965" x2="135" y2="69.3965" gradientUnits="userSpaceOnUse">
<stop stop-color="white"/>
<stop offset="1" stop-color="#D9D9D9" stop-opacity="0.8"/>
</linearGradient>
<linearGradient id="paint8_linear_122_239" x1="135" y1="24.3965" x2="135" y2="69.3965" gradientUnits="userSpaceOnUse">
<stop stop-color="white"/>
<stop offset="1" stop-color="#D9D9D9" stop-opacity="0.8"/>
</linearGradient>
<linearGradient id="paint9_linear_122_239" x1="135" y1="24.3965" x2="135" y2="69.3965" gradientUnits="userSpaceOnUse">
<stop stop-color="white"/>
<stop offset="1" stop-color="#D9D9D9" stop-opacity="0.8"/>
</linearGradient>
</defs>
</svg>
